<svg id="Layer_1" data-name="Layer 1" xmlns="http://www.w3.org/2000/svg" viewBox="0 0 562.8 99.59"><defs><style>.cls-1{fill:#ffbbd0}</style></defs><path class="cls-1" d="M74.22 20.36C57 20.36 50.89 34 50.47 35c-.42-1-6.47-14.64-23.74-14.64A26.84 26.84 0 0 0 .26 47.05c0 28.76 27.6 52.07 50.21 52.07s50.21-23.31 50.21-52.07a26.84 26.84 0 0 0-26.46-26.69Zm4.54 27.79a28.29 28.29 0 0 1-56.58 0v-.81h10v.81a18.3 18.3 0 0 0 36.6 0v-.81h10ZM522.38 20.39c-23.26 0-40.25 16.79-40.25 39.44s17 39.45 40.25 39.45 40.25-16.79 40.25-39.45c0-23.05-16.99-39.44-40.25-39.44Zm0 62.91c-12.75 0-21.44-9.71-21.44-23.47s8.69-23.46 21.44-23.46 21.44 9.71 21.44 23.46-8.7 23.47-21.44 23.47ZM433 20.39c-23.26 0-40.25 16.79-40.25 39.44s17 39.45 40.25 39.45 40.26-16.79 40.26-39.45c-.03-23.05-17.02-39.44-40.26-39.44Zm0 62.91c-12.74 0-21.44-9.71-21.44-23.47s8.7-23.46 21.44-23.46 21.44 9.71 21.44 23.46S445.72 83.3 433 83.3ZM171.85 20.39c-12.54 0-21.85 5.46-27.31 14.77V-.24h-17v58.05c0 24.68 14.56 41.47 39.64 41.47 20.63 0 39.85-14.77 39.85-39.85-.03-21.24-12.73-39.04-35.18-39.04ZM167 82.49c-13.75 0-21.64-9.91-21.64-22.66 0-12.94 7.68-23.46 21.44-23.46 13.15 0 21.44 10.52 21.44 23.46-.01 12.75-7.49 22.66-21.24 22.66ZM255.79 20.39c-20.63 0-39.85 14.77-39.85 39.85 0 21.24 12.74 39 35.2 39 12.54 0 21.84-5.46 27.3-14.77v14h17V61.86c-.01-24.68-14.57-41.47-39.65-41.47Zm0 62.91c-13.55 0-21-10.12-21-23.06 0-12.74 7.49-23.06 21.24-23.06s21.64 9.91 21.64 22.65c-.04 12.95-8.13 23.47-21.88 23.47ZM366.83-.24v35.4c-5.46-9.31-14.76-14.77-27.3-14.77-22.46 0-35.2 17.8-35.2 39 0 25.49 18 39.85 39 39.85 25.08 0 40.45-16.79 40.45-41.47v-58Zm-22.45 82.73c-13.75 0-21.24-9.91-21.24-22.66 0-12.94 8.3-23.46 21.44-23.46 13.76 0 21.44 10.32 21.44 23.46-.02 12.75-7.89 22.66-21.64 22.66Z"/></svg>